<?xml version="1.0" encoding="iso-8859-1"?>
<!-- Uploaded to: SVG Repo, www.svgrepo.com, Generator: SVG Repo Mixer Tools -->
<svg fill="#000000" height="800px" width="800px" version="1.1" id="Layer_1" xmlns="http://www.w3.org/2000/svg" xmlns:xlink="http://www.w3.org/1999/xlink" 
	 viewBox="0 0 512 512" xml:space="preserve">
<g>
	<g>
		<path d="M492.504,46.987h-18.517V23.831c0-8.975-7.302-16.276-16.277-16.276h-26.346c-8.975,0-16.276,7.301-16.276,16.276v23.171
			h-11.912c-0.082-0.002-0.162-0.015-0.244-0.015h-59.699c-0.063,0-0.124,0.013-0.186,0.015h-66.731
			c-0.082-0.002-0.162-0.015-0.244-0.015h-59.699c-0.063,0-0.124,0.013-0.186,0.015h-66.731c-0.082-0.002-0.162-0.015-0.244-0.015
			H96.269V23.831c0-8.975-7.302-16.276-16.276-16.276H53.648c-8.974,0-16.275,7.301-16.275,16.276v23.171H19.496
			C8.746,47.001,0,55.747,0,66.499v224.138v27.758v0.015c0,10.751,8.746,19.497,19.496,19.497h17.876v48.381
			c0,4.452,3.608,8.059,8.059,8.059s8.059-3.607,8.059-8.059v-48.381h26.658v119.297H53.492v-40.911
			c0-4.452-3.608-8.059-8.059-8.059s-8.059,3.607-8.059,8.059v40.91H25.751c-8.136,0-14.755,6.618-14.755,14.754v17.733
			c0,8.136,6.619,14.754,14.755,14.754h82.137c8.136,0,14.755-6.618,14.755-14.754v-17.733c0-8.136-6.619-14.754-14.755-14.754
			H96.269V337.905H415.09v48.119c0,4.452,3.607,8.059,8.059,8.059s8.059-3.607,8.059-8.059v-48.119h26.659v119.297h-26.659v-40.619
			c0-4.452-3.607-8.059-8.059-8.059s-8.059,3.607-8.059,8.059v40.619h-11.621c-8.136,0-14.754,6.618-14.754,14.754v17.733
			c0,8.136,6.618,14.754,14.754,14.754h82.137c8.136,0,14.756-6.618,14.756-14.754v-17.733c0-8.136-6.62-14.754-14.756-14.754
			h-11.619V337.905h18.517c10.751,0,19.496-8.746,19.496-19.497V129.812V66.499v-0.015C512,55.732,503.255,46.987,492.504,46.987z
			 M431.365,23.674h26.346c0.087,0,0.158,0.07,0.158,0.157v23.171h-26.659V23.831h-0.001
			C431.208,23.745,431.278,23.674,431.365,23.674z M53.492,23.831c0-0.086,0.07-0.157,0.157-0.157h26.346
			c0.087,0,0.157,0.07,0.157,0.157v23.171H53.492V23.831z M16.119,66.499c0-1.862,1.515-3.378,3.377-3.378h25.935h32.767
			l-62.08,179.544V66.499z M48.465,321.773H19.496c-1.862,0-3.377-1.515-3.377-3.377v-26.404L95.254,63.12h42.644L48.465,321.773z
			 M106.525,473.321v15.004h-79.41v-15.004h18.316h42.777H106.525z M88.209,321.787H65.515L154.953,63.12h50.105l-89.439,258.667
			H88.209z M132.68,321.772L222.113,63.12h42.643l-89.432,258.651H132.68z M192.373,321.787L281.811,63.12h50.106l-89.439,258.667
			H192.373z M259.538,321.772L348.971,63.12h42.643l-89.433,258.651H259.538z M319.231,321.787L408.669,63.12h14.479h35.627
			l-89.438,258.667H319.231z M484.243,473.321v15.004h-0.001h-79.41v-15.004h18.316h42.778H484.243z M495.881,318.408
			c0,1.863-1.515,3.379-3.377,3.379h-26.577H446.09l49.791-144.004V318.408z M495.881,128.459L429.04,321.773h-42.642
			l89.433-258.652h16.672c1.862,0,3.377,1.515,3.377,3.379V128.459z"/>
	</g>
</g>
</svg>