<!DOCTYPE svg PUBLIC "-//W3C//DTD SVG 1.1//EN" "http://www.w3.org/Graphics/SVG/1.1/DTD/svg11.dtd">
<!-- Uploaded to: SVG Repo, www.svgrepo.com, Transformed by: SVG Repo Mixer Tools -->
<svg fill="#c9aa54" height="800px" width="800px" version="1.1" id="Capa_1" xmlns="http://www.w3.org/2000/svg" xmlns:xlink="http://www.w3.org/1999/xlink" viewBox="0 0 468.836 468.836" xml:space="preserve" stroke="#c9aa54">
<g id="SVGRepo_bgCarrier" stroke-width="0"/>
<g id="SVGRepo_tracerCarrier" stroke-linecap="round" stroke-linejoin="round"/>
<g id="SVGRepo_iconCarrier"> <g> <path d="M368.301,239.084c1.035-10.602-4.672-21.174-14.905-25.803l-84.307-38.115c-10.189-5.398-22.063-8.499-34.458-8.499 c-10.516,0-20.648,2.221-29.694,6.17c-0.05,0.021-0.101,0.028-0.15,0.051l-89.346,40.395c-10.206,4.615-15.91,15.143-14.914,25.718 c-59.288,9.121-89.358,23.102-89.358,41.579v137.007c0,15.197,22.711,27.776,67.502,37.39c41.648,8.938,96.961,13.86,155.748,13.86 s114.1-4.923,155.748-13.86c44.791-9.613,67.502-22.192,67.502-37.39V280.579C457.668,262.073,427.6,248.121,368.301,239.084z M449.168,280.579c0,5.288-7.443,12.419-26.4,19.471c-8.773-22.414-76.952-31.945-107.401-35.109 c-0.096-0.01-0.187,0.003-0.282-0.001l-4.351-14.83l21.598,9.765c3.363,1.519,6.937,2.283,10.52,2.283 c3.048,0,6.102-0.552,9.038-1.66c6.309-2.38,11.319-7.052,14.153-13.157c27.01,4.071,48.009,9.188,62.426,15.226 C442.01,268.237,449.168,274.466,449.168,280.579z M330.81,318.533l-13.143-44.791c59.717,6.517,92.873,19.043,97.076,29.06 c-7.386,2.347-16.11,4.655-26.36,6.855C371.303,313.322,351.867,316.301,330.81,318.533z M358.992,241.809 c-1.405,4.336-5.839,9.126-10.104,10.735c-4.265,1.61-8.901,1.463-13.055-0.416l-28.256-12.775l-8.565-29.193 c-1.577-5.542-4.118-10.749-7.441-15.501l58.323,26.367C357.291,224.372,361.397,234.391,358.992,241.809z M207.202,181.115 c7.96-3.444,18.132-5.948,27.429-5.948c8.845,0,19.6,2.313,27.85,6.376c10.863,5.931,22.768,16.337,26.996,26.958h-84.726 c-2.348,0-4.25,1.902-4.25,4.25c0,2.348,1.902,4.25,4.25,4.25h87.409l30.045,102.396c-27.291,2.577-57.046,3.933-87.787,3.933 c-30.73,0-60.476-1.354-87.758-3.93l6.256-21.064h120.502c2.348,0,4.25-1.902,4.25-4.25c0-2.348-1.902-4.25-4.25-4.25H155.439 l22.972-77.359C182.141,199.238,193.687,187.666,207.202,181.115z M138.05,318.535c-21.066-2.232-40.511-5.211-57.597-8.878 c-10.25-2.2-18.976-4.51-26.361-6.855c4.203-10.037,37.425-22.569,97.266-29.081L138.05,318.535z M118.942,221.027l58.864-26.613 c-3.391,4.808-5.978,10.08-7.561,15.699l-8.636,29.082l-28.607,12.933c-4.153,1.879-8.791,2.026-13.055,0.416 c-4.266-1.609-7.649-4.783-9.526-8.937C106.545,235.034,110.368,224.904,118.942,221.027z M102.75,247.255 c2.827,6.148,7.859,10.851,14.197,13.242c2.936,1.108,5.99,1.66,9.038,1.66c3.583,0,7.157-0.764,10.52-2.283l21.905-9.903 l-4.431,14.922c-0.013,0.001-0.026-0.002-0.039,0c-30.588,3.154-99.084,12.675-107.874,35.156 c-18.955-7.051-26.398-14.182-26.398-19.47C19.668,275.685,25.729,258.976,102.75,247.255z M388.383,446.664 c-41.08,8.816-95.759,13.672-153.965,13.672s-112.885-4.855-153.965-13.672c-44.816-9.618-60.785-21.327-60.785-29.078v-70.868 c10.33,8.601,30.044,16.057,59.002,22.271c41.648,8.938,96.961,13.86,155.748,13.86c2.348,0,4.25-1.902,4.25-4.25 c0-2.348-1.902-4.25-4.25-4.25c-58.206,0-112.885-4.855-153.965-13.672c-44.816-9.618-60.785-21.327-60.785-29.078v-35.902 c10.33,8.6,30.044,16.057,59.002,22.272c41.648,8.938,96.961,13.86,155.748,13.86s114.1-4.923,155.748-13.86 c28.957-6.215,48.672-13.672,59.002-22.272v87.875c0,7.751-15.969,19.46-60.785,29.078c-41.08,8.816-95.759,13.672-153.965,13.672 c-2.348,0-4.25,1.902-4.25,4.25c0,2.348,1.902,4.25,4.25,4.25c58.787,0,114.1-4.923,155.748-13.86 c28.957-6.215,48.672-13.671,59.002-22.271v18.896C449.168,425.337,433.199,437.046,388.383,446.664z"/> <path d="M76.68,142.912c0,2.348,1.902,4.25,4.25,4.25c2.348,0,4.25-1.902,4.25-4.25c0-6.5,1.625-9.569,3.506-13.123 c2.106-3.978,4.494-8.488,4.494-17.101c0-8.611-2.388-13.121-4.494-17.1c-1.881-3.554-3.506-6.623-3.506-13.124 c0-6.499,1.625-9.567,3.506-13.121c2.106-3.978,4.494-8.487,4.494-17.098c0-2.348-1.902-4.25-4.25-4.25 c-2.348,0-4.25,1.902-4.25,4.25c0,6.499-1.625,9.567-3.506,13.121c-2.106,3.978-4.494,8.487-4.494,17.098 c0,8.612,2.388,13.122,4.494,17.101c1.881,3.554,3.506,6.623,3.506,13.123c0,6.501-1.625,9.57-3.506,13.124 C79.067,129.791,76.68,134.301,76.68,142.912z"/> <path d="M22.68,212.246c0,2.348,1.902,4.25,4.25,4.25c2.348,0,4.25-1.902,4.25-4.25c0-6.501,1.625-9.57,3.506-13.124 c2.106-3.979,4.494-8.488,4.494-17.1c0-8.612-2.388-13.122-4.494-17.101c-1.881-3.554-3.506-6.623-3.506-13.123 s1.625-9.568,3.506-13.122c2.106-3.979,4.494-8.487,4.494-17.098c0-2.348-1.902-4.25-4.25-4.25c-2.348,0-4.25,1.902-4.25,4.25 c0,6.499-1.625,9.567-3.506,13.121c-2.107,3.979-4.494,8.487-4.494,17.099c0,8.611,2.388,13.121,4.494,17.1 c1.881,3.554,3.506,6.623,3.506,13.124c0,6.5-1.625,9.569-3.506,13.123C25.067,199.124,22.68,203.634,22.68,212.246z"/> <path d="M399.347,111.355c0,8.612,2.388,13.122,4.494,17.101c1.881,3.554,3.506,6.623,3.506,13.123c0,2.348,1.902,4.25,4.25,4.25 c2.348,0,4.25-1.902,4.25-4.25c0-8.611-2.388-13.121-4.494-17.1c-1.881-3.554-3.506-6.623-3.506-13.124s1.625-9.57,3.506-13.124 c2.106-3.979,4.494-8.488,4.494-17.1c0-8.61-2.388-13.119-4.494-17.098c-1.881-3.554-3.506-6.622-3.506-13.122 c0-2.348-1.902-4.25-4.25-4.25c-2.348,0-4.25,1.902-4.25,4.25c0,8.611,2.388,13.12,4.494,17.099 c1.881,3.554,3.506,6.622,3.506,13.121c0,6.5-1.625,9.569-3.506,13.123C401.734,98.233,399.347,102.743,399.347,111.355z"/> <path d="M218.249,2.772c-37.831,12.084-61.2,44.183-61.2,79.479c0,30.041,18.297,57.283,50.198,74.739 c0.086,0.047,0.175,0.082,0.262,0.122c8.361,4.429,17.378,6.684,26.805,6.714c0.004,0,0.009,0.002,0.013,0.002 c0.057,0.003,0.112,0.001,0.168,0.004c0.004,0,0.008,0,0.012,0c0.001,0,0.002,0,0.002,0c1.046,0.042,2.091,0.066,3.137,0.066 c21.32-0.001,42.462-8.629,58.461-23.968c16.407-15.729,25.443-36.214,25.443-57.68c0-45.353-36.897-82.25-82.25-82.25 C232.633,0,224.793,0.855,218.249,2.772C218.276,2.783,218.222,2.76,218.249,2.772z M189.131,117.292 c0-16.064,8.691-28.447,22.35-33.569c4.855,8.213,22.513,30.922,70.745,34.716c-5.613,21.766-24.261,36.893-47.72,36.893 c-8.102,0-15.852-1.931-23.037-5.739c-0.042-0.022-0.087-0.032-0.129-0.053c-0.084-0.046-0.164-0.099-0.252-0.139 C197.333,141.789,189.131,129.803,189.131,117.292z M261.78,62.151c13.776,9.568,22.194,25.464,22.194,42.349 c0,1.874-0.093,3.717-0.267,5.527c-41.31-3.03-57.975-20.412-63.544-28.466c2.396-0.324,4.887-0.468,7.472-0.396 c0.36,0.011,0.722,0.016,1.079,0.016c0,0,0.002,0,0.004,0c10.395,0,20.175-4.203,27.539-11.835 C258.388,67.139,260.228,64.722,261.78,62.151z M313.049,82.25c0,19.128-8.106,37.433-22.825,51.544 c-3.276,3.141-6.801,5.949-10.499,8.445c8.259-10.464,12.75-23.658,12.75-37.739c0-20.16-10.302-39.107-27.063-50.148 c1.401-4.13,2.138-8.502,2.138-12.977c0-12.999-6.268-24.562-15.937-31.827C286.434,15.427,313.049,45.78,313.049,82.25z M217.799,11.695c3.149-1.029,6.645-1.611,9.957-1.611c17.255,0,31.293,14.037,31.293,31.291c0,8.278-3.163,16.115-8.908,22.068 c-5.748,5.957-13.355,9.237-21.422,9.237c-0.001,0-0.003,0-0.003,0c-0.278,0-0.561-0.004-0.84-0.012 c-0.555-0.016-1.102-0.023-1.648-0.023c-26.421,0-45.598,18.776-45.598,44.646c0,2.684,0.29,5.343,0.852,7.95 c-8.895-10.87-15.934-25.12-15.934-42.992C165.549,50.744,187.143,21.76,217.799,11.695z"/> </g> </g>
</svg>