<?xml version="1.0" encoding="iso-8859-1"?>
<!-- Uploaded to: SVG Repo, www.svgrepo.com, Generator: SVG Repo Mixer Tools -->
<!DOCTYPE svg PUBLIC "-//W3C//DTD SVG 1.1//EN" "http://www.w3.org/Graphics/SVG/1.1/DTD/svg11.dtd">
<svg fill="#000000" height="800px" width="800px" version="1.1" id="Capa_1" xmlns="http://www.w3.org/2000/svg" xmlns:xlink="http://www.w3.org/1999/xlink" 
	 viewBox="0 0 417.497 417.497" xml:space="preserve">
<g>
	<path d="M286.943,314.846h-8.095v13.356h7.938c2.583,0,4.51-0.546,5.781-1.638c1.27-1.092,1.906-2.709,1.906-4.851
		c0-2.099-0.636-3.769-1.906-5.009C291.295,315.466,289.421,314.846,286.943,314.846z"/>
	<path d="M199.152,314.279c-3.13,0-5.555,1.142-7.277,3.425c-1.722,2.283-2.583,5.224-2.583,8.821v8.332
		c0,3.64,0.871,6.606,2.615,8.9c1.743,2.293,4.168,3.44,7.276,3.44c3.15,0,5.607-1.146,7.371-3.44c1.764-2.294,2.646-5.26,2.646-8.9
		v-8.332c0-3.577-0.893-6.512-2.678-8.805C204.738,315.426,202.281,314.279,199.152,314.279z"/>
	<path d="M382.104,380.516c0.077-0.956,0.055-1.929-0.078-2.906L332.35,13.242C331.337,5.816,324.674,0,317.18,0H100.307
		c-7.494,0-14.157,5.816-15.17,13.242L35.461,377.61c-0.135,0.989-0.153,1.974-0.073,2.941c-0.171,0.874-0.267,1.775-0.267,2.698
		v20.248c0,7.72,6.28,14,14,14h43.357c7.72,0,14-6.28,14-14v-11.293h204.538v11.293c0,7.72,6.28,14,14,14h43.358
		c7.72,0,14-6.28,14-14v-20.248C382.375,382.314,382.279,381.401,382.104,380.516z M257.207,37.919h35.091v7.088H279.32v38.777
		h-9.198V45.007h-12.915V37.919z M222.935,37.919h31.343v7.088h-22.145v11.529h18.994v7.088h-18.994v13.072h22.208v7.088h-31.406
		V37.919z M185.89,37.919h31.343v7.088h-22.145v11.529h18.994v7.088h-18.994v13.072h22.208v7.088H185.89V37.919z M134.198,37.919
		l6.584,31.406l0.189,0.032l8.6-31.438h6.772l8.663,31.438h0.189l6.552-31.438h8.978l-10.71,45.865h-8.536l-8.411-30.272h-0.189
		l-8.411,30.272h-8.536l-10.741-45.865H134.198z M142.86,314.846h-22.428v12.632h19.215v7.087h-19.215v19.058h-9.198v-45.865h31.626
		V314.846z M178.078,353.623h-29.61v-45.865h9.198v38.777h20.412V353.623z M218.399,334.818c0,5.628-1.78,10.28-5.339,13.954
		c-3.56,3.675-8.186,5.512-13.876,5.512c-5.649,0-10.238-1.837-13.765-5.512c-3.528-3.675-5.292-8.326-5.292-13.954v-8.253
		c0-5.607,1.759-10.253,5.277-13.939c3.517-3.686,8.1-5.529,13.75-5.529c5.691,0,10.321,1.843,13.891,5.529
		c3.57,3.685,5.355,8.331,5.355,13.939V334.818z M262.468,334.818c0,5.628-1.78,10.28-5.339,13.954
		c-3.56,3.675-8.186,5.512-13.876,5.512c-5.649,0-10.238-1.837-13.766-5.512c-3.528-3.675-5.292-8.326-5.292-13.954v-8.253
		c0-5.607,1.759-10.253,5.277-13.939c3.517-3.686,8.1-5.529,13.75-5.529c5.69,0,10.321,1.843,13.891,5.529
		c3.57,3.685,5.355,8.331,5.355,13.939V334.818z M257.736,262.384l-15.805-28.981c-1.701-3.122-5.776-7.196-8.897-8.898
		l-13.526-7.375l-0.352,0.238c0,0,14.081,44.245,19.846,58.597c5.054,12.582-16.591,24.783-23.699,8.417
		c0,0-21.47-58.99-21.752-59.454l-24.37-40.117l-3.275,8.617c-1.065,2.802-0.153,6.939,1.991,9.034l16.379,15.995
		c7.802,5.958-1.531,19.792-12.896,10.408l-23.884-22.751c-3.068-2.923-4.161-8.262-2.487-12.155l12.523-29.125
		c0.536-1.245,1.381-2.416,2.417-3.439c0.339-0.613,0.755-1.186,1.245-1.701c-7.52-0.769-14.353-4.802-18.635-11.134
		c-7.918-11.71-4.832-27.679,6.878-35.597c4.258-2.879,9.215-4.4,14.336-4.4c8.538,0,16.485,4.216,21.261,11.279
		c4.36,6.448,5.377,14.185,3.461,21.16l1.508-1.02c3.163-2.881,9.215-1.186,9.738-1.084l49.297,9.57
		c13.039,2.614,7.206,19.78-0.844,18.251c-0.459,0-0.925-0.042-1.384-0.124l-33.133-5.906l23.529,34.801
		c0.422,0.625,14.567,10.898,14.567,10.898c3.416,2.237,7.67,7.036,9.483,10.697c0,0,10.577,22.723,14.812,29.915
		C284.854,261.923,266.744,276.415,257.736,262.384z M306.253,353.623h-9.481c-0.84-0.672-1.386-1.796-1.638-3.37
		c-0.252-1.575-0.378-3.066-0.378-4.474v-3.244c0-2.289-0.626-4.069-1.875-5.34c-1.25-1.27-3.008-1.905-5.276-1.905h-8.757v18.333
		h-9.198v-45.865h17.293c5.229,0,9.319,1.193,12.27,3.575c2.95,2.384,4.425,5.708,4.425,9.97c0,2.373-0.619,4.41-1.858,6.11
		c-1.24,1.701-3.056,3.077-5.45,4.127c2.709,0.799,4.657,2.132,5.844,4.001c1.186,1.869,1.78,4.179,1.78,6.93v3.37
		c0,1.281,0.173,2.62,0.52,4.017c0.346,1.396,0.939,2.431,1.78,3.103V353.623z"/>
	<path d="M243.221,314.279c-3.13,0-5.555,1.142-7.277,3.425c-1.722,2.283-2.583,5.224-2.583,8.821v8.332
		c0,3.64,0.871,6.606,2.615,8.9c1.743,2.293,4.168,3.44,7.276,3.44c3.15,0,5.607-1.146,7.371-3.44c1.764-2.294,2.646-5.26,2.646-8.9
		v-8.332c0-3.577-0.893-6.512-2.678-8.805C248.807,315.426,246.35,314.279,243.221,314.279z"/>
</g>
</svg>